<svg id="Icons" height="512" viewBox="0 0 74 74" width="512" xmlns="http://www.w3.org/2000/svg"><path d="m71.24 47.53a1 1 0 0 1 -1-1v-2.97a1 1 0 0 1 2 0v2.97a1 1 0 0 1 -1 1z"/><path d="m68.24 72.01h-62a4.005 4.005 0 0 1 -4-4v-62a4 4 0 0 1 4-4h62a4 4 0 0 1 4 4v30.55a1 1 0 0 1 -2 0v-30.55a2 2 0 0 0 -2-2h-62a2 2 0 0 0 -2 2v62a2 2 0 0 0 2 2h62a2 2 0 0 0 2-2v-4.57a1 1 0 0 1 2 0v4.57a4 4 0 0 1 -4 4z"/><path d="m71.24 57.44a1 1 0 0 1 -1-1v-2.91a1 1 0 0 1 2 0v2.91a1 1 0 0 1 -1 1z"/><path d="m71.24 21.01h-68a1 1 0 1 1 0-2h68a1 1 0 0 1 0 2z"/><path d="m62.759 15.625a3.919 3.919 0 1 1 3.919-3.918 3.923 3.923 0 0 1 -3.919 3.918zm0-5.837a1.919 1.919 0 1 0 1.919 1.919 1.92 1.92 0 0 0 -1.919-1.919z"/><path d="m52.458 15.625a3.919 3.919 0 1 1 3.918-3.918 3.923 3.923 0 0 1 -3.918 3.918zm0-5.837a1.919 1.919 0 1 0 1.918 1.919 1.921 1.921 0 0 0 -1.918-1.919z"/><path d="m42.156 15.625a3.919 3.919 0 1 1 3.919-3.918 3.923 3.923 0 0 1 -3.919 3.918zm0-5.837a1.919 1.919 0 1 0 1.919 1.919 1.921 1.921 0 0 0 -1.919-1.919z"/><path d="m33.458 12.707h-24.658a1 1 0 0 1 0-2h24.658a1 1 0 0 1 0 2z"/><path d="m48.438 60.01h-1.061a1 1 0 0 1 0-2h1.061a.862.862 0 0 0 .862-.862v-6.166a2.844 2.844 0 0 1 .815-2l2.806-2.871a.867.867 0 0 0 0-1.2l-2.8-2.87a2.844 2.844 0 0 1 -.816-2v-6.171a.863.863 0 0 0 -.862-.862h-1.066a1 1 0 0 1 0-2h1.061a2.865 2.865 0 0 1 2.862 2.862v6.166a.854.854 0 0 0 .245.6l2.806 2.87a2.878 2.878 0 0 1 0 4l-2.806 2.874a.858.858 0 0 0 -.245.6v6.166a2.865 2.865 0 0 1 -2.862 2.864z"/><path d="m28.032 60.01h-1.992a2.865 2.865 0 0 1 -2.861-2.862v-6.166a.855.855 0 0 0 -.246-.6l-2.807-2.871a2.881 2.881 0 0 1 0-4l2.806-2.869a.855.855 0 0 0 .246-.6v-6.172a2.865 2.865 0 0 1 2.861-2.862h1.992a1 1 0 1 1 0 2h-1.991a.863.863 0 0 0 -.861.862v6.166a2.844 2.844 0 0 1 -.817 2l-2.8 2.869a.867.867 0 0 0 0 1.2l2.807 2.871a2.849 2.849 0 0 1 .815 2v6.166a.862.862 0 0 0 .861.862h1.992a1 1 0 1 1 0 2z"/><path d="m33.73 58.01a.985.985 0 0 1 -.292-.044 1 1 0 0 1 -.665-1.248l7.02-23a1 1 0 1 1 1.913.584l-7.02 23a1 1 0 0 1 -.956.708z"/></svg>